<?xml version="1.0" encoding="UTF-8"?>
<svg id="Layer_1" data-name="Layer 1" xmlns="http://www.w3.org/2000/svg" viewBox="0 0 58 58">
  <defs>
    <style>
      .cls-1 {
        fill: #eaf4ff;
      }

      .cls-2 {
        fill: #0040ff;
      }
    </style>
  </defs>
  <circle class="cls-1" cx="29" cy="29.62" r="28.4"/>
  <g>
    <path class="cls-2" d="M44.79,29.82c0-.48-.02-.95-.07-1.42l3.16-.83-1.42-5.42-3.23.84c-.68-1.42-1.56-2.71-2.61-3.86l2.07-2.68-4.43-3.42-2.1,2.71c-1.36-.69-2.82-1.19-4.37-1.47v-3.45h-5.6v3.45c-1.47.26-2.86.73-4.16,1.36l-2.05-2.74-4.48,3.36,2.03,2.71c-.77.82-1.46,1.72-2.05,2.68l-3.14-1.16-1.94,5.25,3.08,1.13c-.18.95-.28,1.93-.28,2.93,0,.34.02.69.04,1.03l-3.13.82,1.42,5.41,3.06-.8c.66,1.48,1.55,2.84,2.61,4.03l-1.9,2.46,4.43,3.42,1.88-2.43c1.42.75,2.96,1.29,4.58,1.58v3.05h5.6v-3.05c1.56-.28,3.02-.78,4.38-1.48l1.84,2.46,4.48-3.36-1.87-2.49c.79-.86,1.48-1.81,2.07-2.84l2.95,1.09,1.93-5.25-3.01-1.11c.13-.83.2-1.68.2-2.55ZM29,40.37c-5.94,0-10.75-4.81-10.75-10.75s4.81-10.75,10.75-10.75,10.75,4.81,10.75,10.75-4.82,10.75-10.75,10.75Z"/>
    <g>
      <g>
        <path class="cls-2" d="M31.05,32.23c-.07-.15-.19-.26-.34-.32l-.78-.31-1.13-.45-.45-.18-1.13-.45-.79-.31c-.15-.05-.31-.05-.46.01-.15.07-.26.19-.32.34l-1.47,3.69c-.5,1.28.08,2.72,1.31,3.2l.96.38c.28.11.56.16.85.16.97,0,1.9-.61,2.29-1.6l1.47-3.69c.06-.15.05-.32-.01-.47ZM28.47,35.95c-.27.65-.97.99-1.57.75l-.96-.38c-.61-.23-.89-.96-.63-1.62l1.24-3.13.22.08,1.13.45.46.18.31.12.81.32h0s.22.09.22.09l-1.23,3.14Z"/>
        <path class="cls-2" d="M29.7,32.81l-1.23,3.14c-.27.65-.97.99-1.57.75l-.96-.38c-.61-.23-.89-.96-.63-1.62l1.24-3.13.22.08,1.13.45.46.18.31.12.81.33.22.08Z"/>
      </g>
      <g>
        <path class="cls-2" d="M32.99,22.31l-.44,1.13-1.66-.66-.18-.07-2.13,2.96.9,1.9c.08.15.08.33.02.49l-1.15,2.91-.45,1.13-1.13-.45.45-1.13,1.05-2.66-.94-1.99c-.1-.2-.08-.43.05-.61l2.62-3.64c.17-.23.46-.31.72-.21l.62.24h0s1.65.66,1.65.66Z"/>
        <path class="cls-2" d="M33.99,23.2l-.57,4.44c-.03.22-.18.41-.39.49l-2.04.8-1.06,2.67-.45,1.12h0s-.81-.32-.81-.32l-.31-.12.44-1.13,1.15-2.91c.07-.16.19-.29.35-.35l1.96-.76.47-3.62-.18-.07-1.66-.66.45-1.12h0s1.65.65,1.65.65l.62.24c.26.11.42.37.38.65Z"/>
      </g>
    </g>
  </g>
</svg>