<?xml version="1.0" encoding="UTF-8"?>
<svg id="Layer_1" data-name="Layer 1" xmlns="http://www.w3.org/2000/svg" viewBox="0 0 58 58">
  <defs>
    <style>
      .cls-1 {
        fill: #eaf4ff;
      }

      .cls-2 {
        fill: #2566fa;
      }

      .cls-3 {
        fill: #0040ff;
      }
    </style>
  </defs>
  <circle class="cls-1" cx="29.27" cy="28.45" r="28.4"/>
  <g>
    <g>
      <path class="cls-3" d="M35.51,9.13c-2.78,0-5.04,2.26-5.04,5.04s2.26,5.04,5.04,5.04,5.04-2.26,5.04-5.04-2.26-5.04-5.04-5.04ZM35.51,17.99c-2.11,0-3.82-1.71-3.82-3.82s1.71-3.83,3.82-3.83,3.83,1.72,3.83,3.83-1.72,3.82-3.83,3.82Z"/>
      <path class="cls-3" d="M39.34,14.17c0,2.11-1.72,3.82-3.83,3.82s-3.82-1.71-3.82-3.82,1.71-3.83,3.82-3.83,3.83,1.72,3.83,3.83Z"/>
    </g>
    <g>
      <path class="cls-3" d="M40.53,21.11c-.03-.21-.08-.41-.16-.6-.17-.4-.44-.75-.79-1.02-.74-.56-1.72-.63-2.52-.25-.35.15-.66.4-.91.73l-5.21,6.87-.9,1.18h0s-.36.48-.36.48c-.34.44-.5.96-.5,1.48,0,.74.34,1.48.97,1.96.44.33.96.49,1.48.49.15,0,.29,0,.44-.04.43-.08.85-.27,1.19-.57.12-.11.23-.23.33-.36l2.56-3.38.88-1.16,3.03-3.99c.39-.52.56-1.17.47-1.82ZM39.09,22.2l-6.47,8.53c-.41.55-1.19.65-1.73.24-.27-.2-.44-.49-.48-.82-.05-.32.04-.65.24-.91l6.46-8.54c.42-.54,1.2-.65,1.74-.24.26.2.43.49.48.82.04.33-.04.65-.24.92Z"/>
      <path class="cls-3" d="M39.33,21.28c.04.33-.04.65-.24.92l-6.47,8.53c-.41.55-1.19.65-1.73.24-.27-.2-.44-.49-.48-.82-.05-.32.04-.65.24-.91l6.46-8.54c.42-.54,1.2-.65,1.74-.24.26.2.43.49.48.82Z"/>
    </g>
    <g>
      <path class="cls-3" d="M44.09,31.91l-.02,11.44c-1.43.8-2.32.39-2.74.04v-7.56c0-.5-.28-.93-.73-1.14-.44-.21-.96-.15-1.37.2l-1.77,1.72c-.29.24-.46.59-.46.97v5.78c-1.25,1.04-2.54.03-2.58-.02l.02-7.83,3.64-3.12c.39-.34.54-.88.37-1.37l-1.42-4.1,3.03-3.99c.39-.52.56-1.17.47-1.82-.03-.21-.08-.41-.16-.6.14.18.25.37.3.54.52,1.67,1.05,3.35,1.58,5.03l1.84,5.83Z"/>
      <path class="cls-3" d="M45.3,31.91v11.4c0,.45-.24.87-.63,1.09-.01,0-.01.01-.02.01-2.11,1.18-3.54.38-4.06-.03-.02-.02-.04-.03-.06-.06-.26-.23-.42-.57-.42-.93v-7.56l-.05-.06-1.84,1.81v5.75c0,.38-.17.73-.45.97-.01.01-.02.02-.03.02-.65.53-1.34.72-1.98.72-.85,0-1.61-.34-2.08-.72h-.01c-.29-.25-.46-.6-.46-.98v-7.8c0-.36.16-.71.44-.95l3.64-3.12-1.14-3.39-.28-.83c-.11-.31.06-.66.37-.77.32-.1.67.06.77.38l.02.06,1.42,4.1c.17.49.02,1.03-.37,1.37l-3.64,3.12-.02,7.83s1.33,1.06,2.57.02v-5.78c.01-.38.18-.73.47-.97l1.77-1.72c.41-.35.93-.41,1.37-.2.45.21.73.64.73,1.14v7.56c.42.35,1.31.76,2.74-.04l.02-11.44-1.84-5.83c-.53-1.68-1.06-3.36-1.58-5.03-.05-.17-.16-.36-.3-.54-.18-.22-.41-.43-.64-.56-.63-.37-1.41-.06-1.95.26-.29.17-.66.07-.83-.22-.15-.25-.09-.57.11-.75.03-.03.06-.06.1-.08,1.16-.68,2.29-.77,3.18-.26.56.33,1.24,1.01,1.48,1.78.53,1.68,1.06,3.36,1.59,5.03l1.84,5.84c.04.13.05.24.05.36Z"/>
    </g>
    <g>
      <path class="cls-3" d="M29.34,37.25h-12.88c-.83,0-1.51.68-1.51,1.51v.42c0,.84.68,1.51,1.51,1.51h12.88c.22,0,.44-.05.63-.14.52-.23.88-.76.88-1.37v-.42c0-.83-.68-1.51-1.51-1.51ZM29.34,39.48h-12.88c-.16,0-.3-.13-.3-.3v-.42c0-.17.14-.3.3-.3h12.88c.17,0,.3.13.3.3v.42c0,.16-.12.29-.28.3h-.02Z"/>
      <path class="cls-3" d="M29.64,38.76v.42c0,.16-.12.29-.28.3h-12.9c-.16,0-.3-.13-.3-.3v-.42c0-.17.14-.3.3-.3h12.88c.17,0,.3.13.3.3Z"/>
    </g>
    <g>
      <path class="cls-2" d="M44.65,44.41c-.15-.06-.31-.09-.47-.09h-27.83c-.77,0-1.4.63-1.4,1.4v.64c0,.77.63,1.4,1.4,1.4h27.83c.77,0,1.4-.63,1.4-1.4v-.64c0-.61-.39-1.12-.93-1.31ZM44.37,46.36c0,.1-.09.19-.19.19h-27.83c-.1,0-.19-.09-.19-.19v-.64c0-.1.09-.19.19-.19h27.83c.1,0,.19.09.19.19v.64Z"/>
      <rect class="cls-2" x="16.16" y="45.53" width="28.21" height="1.02" rx=".19" ry=".19"/>
    </g>
    <path class="cls-3" d="M29.97,40.09v4.66c0,.34-.27.61-.61.61s-.6-.27-.6-.61v-4.66c0-.33.26-.6.58-.61h.02c.34,0,.61.27.61.61Z"/>
    <path class="cls-3" d="M17.77,40.24v4.51c0,.34-.27.61-.61.61s-.61-.27-.61-.61v-4.51c0-.33.28-.6.61-.6s.61.27.61.6Z"/>
    <path class="cls-3" d="M28.78,32.79l-.88-2.75c-.05-.14-.11-.28-.21-.39-.3-.4-.83-.6-1.34-.46-.02,0-.03,0-.05.01l-12.45,3.86c-.66.21-1.04.92-.85,1.59l.49,1.69c.11.38.38.68.74.83.16.07.33.1.5.1.21,0,.42-.05.61-.16l.66-.35,1.62-.08c.19,0,.38-.06.55-.15l1.51-.8,1.68.33c.42.08.86-.05,1.16-.36l.71-.72s.04-.02.06-.02l2.75.28c.27.03.54-.02.77-.16l1.29-.74.09-.05c.43-.24.68-.73.64-1.21,0-.1-.02-.2-.05-.29ZM27.59,33.24l-1.42.8-2.75-.29c-.4-.04-.78.1-1.06.38l-.7.72s-.04.03-.07.02l-1.68-.33c-.29-.05-.59-.01-.85.13l-1.5.8-1.62.08c-.2.01-.39.07-.56.16l-.62.34s-.04.01-.06,0c-.02,0-.04-.02-.04-.04l-.49-1.7s.01-.07.04-.09l12.44-3.86h.01s.07,0,.08.04l.88,2.76s0,.05-.02.07c0,0-.01,0-.01,0Z"/>
    <g>
      <path class="cls-3" d="M32.07,32.39c-.05.26-.18.52-.28.55l-2.28.76c-.24.08-.49-.05-.57-.29l-.11-.33c0-.1-.02-.2-.05-.29l-.88-2.75c-.05-.14-.11-.28-.21-.39l-.11-.34c-.07-.24.05-.49.29-.57l2.17-.71-.36.47c-.34.44-.5.96-.5,1.48,0,.74.34,1.48.97,1.96.44.33.96.49,1.48.49.15,0,.29,0,.44-.04Z"/>
      <path class="cls-3" d="M33.16,33c-.19.55-.55.95-.99,1.09l-2.28.76c-.17.06-.35.08-.52.08-.49,0-.96-.22-1.27-.59-.14-.15-.24-.34-.31-.54l-.19-.57-.95-2.87-.22-.67c-.06-.16-.08-.34-.08-.5-.01-.7.44-1.37,1.14-1.6l2.28-.75c.5-.17.88-.12,1.17,0,.25.11.43.28.54.42.21.26.17.64-.08.85-.26.21-.65.18-.86-.08-.05-.07-.11-.14-.39-.04l-.11.03h0s-2.17.72-2.17.72c-.24.08-.36.33-.29.57l.11.34,1.14,3.43.11.33c.08.24.33.37.57.29l2.28-.76c.1-.03.23-.29.28-.55.02-.14.03-.28-.01-.39-.11-.32.06-.66.38-.77.32-.11.66.07.77.39.02.06.04.13.05.2.07.36.03.79-.1,1.18Z"/>
    </g>
    <circle class="cls-1" cx="29.64" cy="32.7" r=".8"/>
  </g>
</svg>