<?xml version="1.0" encoding="UTF-8"?>
<svg id="Layer_1" data-name="Layer 1" xmlns="http://www.w3.org/2000/svg" viewBox="0 0 58 58">
  <defs>
    <style>
      .cls-1 {
        fill: #eaf4ff;
      }

      .cls-2 {
        fill: #0040ff;
      }
    </style>
  </defs>
  <circle class="cls-1" cx="29.31" cy="28.51" r="28.4"/>
  <g>
    <g>
      <path class="cls-2" d="M44.68,19.32c-.1-.2-.31-.33-.54-.33h-2.8l2.41-6.47c.11-.28,0-.59-.26-.74-.26-.15-.58-.09-.77.14l-9.55,11.59c-.15.18-.18.43-.08.64.1.22.31.35.55.35h3.34l-3.42,8.63c-.11.28.01.6.27.75.1.05.2.08.3.08.19,0,.37-.09.49-.25l10.01-13.76c.13-.18.15-.43.05-.63ZM36.45,29.13l1.98-5.01c.08-.19.05-.4-.06-.57-.11-.16-.3-.26-.5-.26h-2.95l6.43-7.8-1.46,3.89c-.07.19-.04.4.07.56.12.16.3.26.5.26h2.49l-6.5,8.93Z"/>
      <g>
        <g>
          <path class="cls-2" d="M45.22,34.85c-.07-.15-.19-.26-.34-.32l-.78-.31-1.13-.45-.45-.18-1.13-.45-.79-.31c-.15-.05-.31-.05-.46.01-.15.07-.26.19-.32.34l-1.47,3.69c-.5,1.28.08,2.72,1.31,3.2l.96.38c.28.11.56.16.85.16.97,0,1.9-.61,2.29-1.6l1.47-3.69c.06-.15.05-.32-.01-.47ZM42.64,38.57c-.27.65-.97.99-1.57.75l-.96-.38c-.61-.23-.89-.96-.63-1.62l1.24-3.13.22.08,1.13.45.46.18.31.12.81.32h0s.22.09.22.09l-1.23,3.14Z"/>
          <path class="cls-2" d="M43.87,35.43l-1.23,3.14c-.27.65-.97.99-1.57.75l-.96-.38c-.61-.23-.89-.96-.63-1.62l1.24-3.13.22.08,1.13.45.46.18.31.12.81.33.22.08Z"/>
        </g>
        <g>
          <path class="cls-2" d="M47.16,24.93l-.44,1.13-1.66-.66-.18-.07-2.13,2.96.9,1.9c.08.15.08.33.02.49l-1.15,2.91-.45,1.13-1.13-.45.45-1.13,1.05-2.66-.94-1.99c-.1-.2-.08-.43.05-.61l2.62-3.64c.17-.23.46-.31.72-.21l.62.24h0s1.65.66,1.65.66Z"/>
          <path class="cls-2" d="M48.16,25.82l-.57,4.44c-.03.22-.18.41-.39.49l-2.04.8-1.06,2.67-.45,1.12h0s-.81-.32-.81-.32l-.31-.12.44-1.13,1.15-2.91c.07-.16.19-.29.35-.35l1.96-.76.47-3.62-.18-.07-1.66-.66.45-1.12h0s1.65.65,1.65.65l.62.24c.26.11.42.37.38.65Z"/>
        </g>
      </g>
    </g>
    <path class="cls-2" d="M30.1,22.01c-.24-.22-.52-.41-.73-.66-.33-.39-.49-.9-.64-1.39-.32-1.03-.73-2.1-1.58-2.76-.54-.42-1.24-.65-1.68-1.17-.21-.25-.35-.54-.48-.83-.53.06-1.06.09-1.6.13-.59.05-1.17.15-1.76.17-.34,0-.64-.12-.87-.33-.07.2-.14.39-.27.56-.28.37-.76.52-1.17.71-1.86.88-5.54,6.41-4.15,8.4.64.92,1.96.97,3.08.93,3.62-.12,7.23-.25,10.85-.37.3-.01.6-.02.88-.13.61-.23.99-.91.98-1.56-.01-.65-.36-1.27-.84-1.71Z"/>
    <g>
      <g>
        <g>
          <path class="cls-2" d="M22.84,32.44c-3.93,0-7.12-3.2-7.12-7.12h1.21c0,3.26,2.65,5.91,5.91,5.91s5.91-2.65,5.91-5.91h1.21c0,3.93-3.2,7.12-7.12,7.12Z"/>
          <path class="cls-2" d="M26.81,32.54c0,.31-.04.61-.12.89-.39,1.63-1.87,2.85-3.62,2.85s-3.16-1.16-3.59-2.74c-.09-.32-.14-.65-.14-1h1.21c0,.23.03.46.09.67.29,1.07,1.27,1.85,2.43,1.85s2.18-.82,2.45-1.93c.05-.19.07-.39.07-.59h1.22Z"/>
          <path class="cls-2" d="M29.7,26.06h-13.72c-.85,0-1.54-.69-1.54-1.54v-1.81c0-.85.69-1.54,1.54-1.54h13.72c.85,0,1.54.69,1.54,1.54v1.81c0,.85-.69,1.54-1.54,1.54ZM15.98,22.38c-.18,0-.33.15-.33.33v1.81c0,.18.15.33.33.33h13.72c.18,0,.33-.15.33-.33v-1.81c0-.18-.15-.33-.33-.33h-13.72Z"/>
          <g>
            <path class="cls-2" d="M29.76,21.77h-1.21c0-2.37-1.41-4.5-3.58-5.44l.48-1.12c2.62,1.12,4.32,3.7,4.32,6.55Z"/>
            <path class="cls-2" d="M16.73,21.77h-1.21c0-3.02,1.92-5.73,4.77-6.73l.4,1.14c-2.37.83-3.95,3.07-3.95,5.58Z"/>
          </g>
          <path class="cls-2" d="M25.08,17.82c-.34,0-.61-.27-.61-.61v-1.77c0-.91-.74-1.65-1.65-1.65s-1.65.74-1.65,1.65v1.77c0,.33-.27.61-.61.61s-.61-.27-.61-.61v-1.77c0-1.58,1.28-2.86,2.86-2.86s2.86,1.28,2.86,2.86v1.77c0,.33-.27.61-.61.61Z"/>
          <path class="cls-1" d="M19.04,20.45c-.34,0-.61-.27-.61-.61v-3.12c0-.33.27-.61.61-.61s.61.27.61.61v3.12c0,.33-.27.61-.61.61Z"/>
          <path class="cls-1" d="M26.73,20.45c-.34,0-.61-.27-.61-.61v-3.12c0-.33.27-.61.61-.61s.61.27.61.61v3.12c0,.33-.27.61-.61.61Z"/>
          <g>
            <path class="cls-2" d="M25.55,31.9c-.75-.14-1.52-.21-2.31-.21-.97,0-1.91.11-2.82.32h-.01c-5.74,1.29-10.04,6.43-10.04,12.55,0,.33.28.61.61.61h25.13v-.61c0-6.3-4.56-11.57-10.56-12.66ZM11.6,43.95c.17-3.21,1.64-6.09,3.91-8.09.38-.35.79-.66,1.22-.95.3-.21.61-.4.93-.57.39-.22.8-.41,1.22-.58.2-.08.4-.16.6-.22.38-.13.76-.25,1.16-.33.83-.2,1.71-.3,2.6-.3.78,0,1.54.08,2.28.22.4.08.79.18,1.17.3.33.11.67.23.99.36.42.17.82.37,1.21.59.32.18.64.37.94.58.43.29.83.61,1.21.96,2.23,2,3.67,4.85,3.84,8.03H11.6Z"/>
            <path class="cls-2" d="M34.88,43.95h-3.84v-8.03c2.23,2,3.67,4.85,3.84,8.03Z"/>
            <path class="cls-2" d="M15.51,35.86v8.09h-3.91c.17-3.21,1.64-6.09,3.91-8.09Z"/>
            <path class="cls-2" d="M27.68,33.79v10.16h-8.8v-10.19c.2-.08.4-.16.6-.22.43,1.58,1.88,2.74,3.59,2.74s3.23-1.22,3.62-2.85c.33.11.67.23.99.36Z"/>
          </g>
          <rect class="cls-2" x="17.66" y="33.35" width="1.22" height="11.32"/>
        </g>
        <rect class="cls-2" x="15.51" y="34.39" width="1.22" height="10.33"/>
      </g>
      <g>
        <rect class="cls-2" x="27.68" y="33.35" width="1.21" height="11.32"/>
        <rect class="cls-2" x="29.83" y="34.39" width="1.21" height="10.33"/>
      </g>
    </g>
    <path class="cls-2" d="M19.74,15.26s3.07-1.55,6.18.19l-.59,1.34-3.59.46-1.29-.68-.41-.51-.34-.24"/>
    <path class="cls-2" d="M25.69,15.32c-.44-.21-.87-.36-1.32-.46-.23-.63-.83-1.07-1.54-1.07s-1.26.41-1.51.99c-.46.07-.9.18-1.34.38.14-1.45,1.36-2.59,2.85-2.59s2.8,1.22,2.86,2.75Z"/>
  </g>
</svg>