<?xml version="1.0" encoding="UTF-8"?>
<svg id="Layer_1" data-name="Layer 1" xmlns="http://www.w3.org/2000/svg" xmlns:xlink="http://www.w3.org/1999/xlink" viewBox="0 0 58 58">
  <defs>
    <style>
      .cls-1, .cls-2 {
        fill: none;
      }

      .cls-3 {
        fill: #eaf4ff;
      }

      .cls-2 {
        stroke: #0040ff;
        stroke-miterlimit: 10;
      }

      .cls-4 {
        fill: #0040ff;
      }

      .cls-5 {
        clip-path: url(#clippath);
      }
    </style>
    <clipPath id="clippath">
      <circle class="cls-1" cx="29" cy="29.4" r="28.4"/>
    </clipPath>
  </defs>
  <circle class="cls-3" cx="29" cy="29.4" r="28.4"/>
  <g class="cls-5">
    <g>
      <g>
        <path class="cls-4" d="M14.41,15.51c-2.5,0-4.54,2.04-4.54,4.55s2.04,4.55,4.54,4.55,4.55-2.04,4.55-4.55-2.04-4.55-4.55-4.55ZM14.41,23.5c-1.9,0-3.44-1.54-3.44-3.44s1.54-3.44,3.44-3.44,3.45,1.54,3.45,3.44-1.55,3.44-3.45,3.44Z"/>
        <path class="cls-4" d="M17.86,20.06c0,1.9-1.55,3.44-3.45,3.44s-3.44-1.54-3.44-3.44,1.54-3.44,3.44-3.44,3.45,1.54,3.45,3.44Z"/>
      </g>
      <g>
        <path class="cls-4" d="M24.74,20.3s-.05-.06-.07-.08c-.06-.07-.13-.13-.19-.18-.07-.06-.14-.11-.22-.16-.8-.53-1.88-.5-2.64.15l-7.39,6.21c-.46.38-.73.91-.79,1.5-.02.23,0,.46.05.68.07.34.23.66.47.94.22.27.49.47.79.6.28.13.59.19.9.19.51,0,1.01-.17,1.42-.52l2.93-2.46,1.04-.87,2.47-2.08.96-.8c.11-.09.2-.19.28-.29.67-.81.68-2.01,0-2.83ZM16.37,28.78c-.23.19-.52.28-.82.26-.29-.03-.56-.17-.75-.39-.12-.14-.2-.31-.23-.49-.03-.1-.04-.21-.03-.32h0c.03-.31.17-.57.4-.76l7.39-6.21c.21-.17.46-.26.71-.26.32,0,.63.14.85.4.4.47.34,1.17-.13,1.56l-7.39,6.21Z"/>
        <path class="cls-4" d="M23.76,22.57l-7.39,6.21c-.23.19-.52.28-.82.26-.29-.03-.56-.17-.75-.39-.12-.14-.2-.31-.23-.49l-.03-.32h0c.03-.31.17-.57.4-.76l7.39-6.21c.21-.17.46-.26.71-.26.32,0,.63.14.85.4.4.47.34,1.17-.13,1.56Z"/>
      </g>
      <path class="cls-4" d="M27.26,22.65l-2.47,2.07-1.27,1.07-2.36,1.98-.17.14c-.1.09-.23.13-.35.13-.16,0-.32-.07-.43-.2-.19-.23-.16-.58.07-.77l.77-.64h0s2.46-2.08,2.46-2.08l1.25-1.04h0s1.79-1.51,1.79-1.51c.47-.39.53-1.1.14-1.56-.2-.23-.46-.37-.76-.4-.3-.02-.58.07-.81.26-.13.11-.29.15-.45.12-.09-.01-.17-.05-.24-.1l-.09-.09s-.06-.09-.08-.15c-.09-.21-.04-.47.15-.62.24-.2.51-.35.8-.43.26-.08.54-.11.82-.09.58.06,1.12.33,1.5.79.78.93.66,2.33-.27,3.12Z"/>
      <path class="cls-4" d="M19.73,39.74l-.36.81-4.04,9.18c-.29.66-.83,1.18-1.51,1.44-.32.12-.65.19-.98.19-.38,0-.75-.08-1.1-.24-.67-.29-1.19-.83-1.45-1.51s-.25-1.42.05-2.09l4.11-9.33.06-.14c.12-.28.45-.4.72-.28.21.09.33.3.33.51,0,.07-.02.14-.04.2.01.01,0,.01,0,.02l-4.17,9.47c-.18.4-.19.84-.03,1.24.16.41.46.73.86.9.4.18.84.19,1.25.03.4-.16.72-.46.9-.86l4.39-9.98c.09-.21.29-.33.5-.33.04,0,.08,0,.12,0,.04.01.07.02.11.04.28.12.4.44.28.72Z"/>
      <path class="cls-4" d="M27.25,42.88s0,.1-.02.16l-.02.11-1.28,6.23c-.26,1.29-1.4,2.18-2.67,2.18-.18,0-.37-.02-.55-.06-1.48-.3-2.43-1.75-2.13-3.23l1-4.99.05-.25c.06-.3.35-.5.64-.44.13.03.24.09.32.19h.01c.11.14.14.32.11.48l-1.04,5.23c-.19.89.38,1.75,1.26,1.93.88.19,1.74-.38,1.92-1.26l1.29-6.3.02-.07c.06-.3.35-.49.65-.43.25.05.43.27.44.52Z"/>
      <path class="cls-4" d="M27.25,42.88s0,.1-.02.16v.05s-.01.04-.02.06c-.06.24-.28.4-.53.4h-.08c-.3-.05-.51-.33-.46-.63,0-.02.01-.04,0-.06.05-.3.01-.42-.29-.78l-4.94-6s-.05-.06-.06-.1c-.02-.02-.03-.04-.04-.07-.07-.22,0-.46.17-.61.24-.19.58-.16.78.07l.07.08,4.87,5.92c.39.47.61.87.55,1.51Z"/>
      <path class="cls-4" d="M22.71,43.26c-.03.11-.1.22-.2.3-.1.08-.22.12-.34.12-.16,0-.32-.07-.43-.2l-.16-.2-2.21-2.73-.54-.68c-.19-.24-.16-.59.08-.78.09-.07.2-.11.31-.12.04,0,.08,0,.12,0,.13.02.25.09.34.2l2.91,3.6h.01c.11.14.14.32.11.48Z"/>
      <path class="cls-4" d="M21.84,35.6c.02.3-.2.57-.51.6h-.04c-.18,0-.34-.09-.44-.22-.02-.02-.03-.04-.04-.07-.04-.06-.06-.14-.07-.22l-.74-8.52-.07-.85c-.02-.3.2-.57.5-.59.3-.04.57.19.6.5v.07s.02.13.02.13l.11,1.34.67,7.68v.15Z"/>
      <g>
        <path class="cls-4" d="M26.14,42.86l-1.29,6.3c-.18.88-1.04,1.45-1.92,1.26-.88-.18-1.45-1.04-1.26-1.93l1.04-5.23c.03-.16,0-.34-.11-.47h-.01s-2.91-3.61-2.91-3.61c-.09-.11-.21-.18-.34-.2-.04,0-.08,0-.12,0-.21,0-.41.12-.5.33l-4.39,9.98c-.18.4-.5.7-.9.86-.41.16-.85.15-1.25-.03-.4-.17-.7-.49-.86-.9-.16-.4-.15-.84.03-1.24l4.17-9.47s.01-.01,0-.02c.03-.06.04-.13.04-.2v-.06l-.81-8.26c.28.13.59.19.9.19.51,0,1.01-.17,1.42-.52l2.93-2.46.74,8.52c0,.08.03.16.07.22.01.03.02.05.04.07.01.04.03.07.06.1l4.94,6c.3.36.34.48.29.78Z"/>
        <path class="cls-4" d="M15.56,38.22v.06c0,.07-.02.14-.04.2-.07.18-.24.32-.45.34h-.06c-.28,0-.52-.21-.55-.49v-.14s-.97-9.77-.97-9.77l-.05-.48c-.03-.31.19-.58.49-.61.31-.03.58.2.61.5h0s.03.33.03.33l.18,1.8.81,8.26Z"/>
      </g>
      <g>
        <path class="cls-4" d="M26.55,21.8l-1.79,1.5c0-.07,0-.12-.01-.17.67-.81.68-2.01,0-2.83-.02-.03-.05-.06-.07-.08.16.03.32-.01.45-.12.23-.19.51-.28.81-.26.3.03.56.17.76.4.39.46.33,1.17-.14,1.56Z"/>
        <path class="cls-4" d="M24.76,34.37c0,.35-.28.64-.63.64h-.01c-.35-.01-.63-.29-.63-.64,0-2.66.03-6.2.03-8.58,0-.55,0-1.04-.01-1.44.01-.04.01-.09,0-.13.01-.26,0-.48,0-.65.56-.06.95-.35,1.18-.74.02.04.04.11.06.3.01.05.01.1.01.17h0c.02.28.03.72.03,1.42.01,1.54,0,4.36-.03,9.65Z"/>
      </g>
      <rect class="cls-4" x="35.84" y="18.21" width="11.29" height="13.89" rx=".77" ry=".77"/>
      <path class="cls-3" d="M41.49,27.33l-1.28-1.27c-.34-.34-.53-.78-.53-1.26,0-.48.18-.93.52-1.28.34-.34.79-.53,1.27-.53h0c.48,0,.93.19,1.27.52.34.34.53.79.53,1.26,0,.48-.18.93-.52,1.28l-1.27,1.28ZM41.48,23.76h0c-.27,0-.53.11-.73.3-.19.2-.3.45-.3.73,0,.27.11.53.3.72l.73.73.72-.73c.19-.2.3-.45.3-.73,0-.27-.11-.53-.3-.72-.19-.19-.45-.3-.72-.3Z"/>
      <polyline class="cls-2" points="24.15 20.62 41.48 -8.16 41.48 18.11"/>
    </g>
  </g>
</svg>